solid OpenSCAD_Model
  facet normal 1 0 0
    outer loop
      vertex 297.7 4.3412 29.6202
      vertex 297.7 16.653 5
      vertex 297.7 20.4921 26.7724
    endloop
  endfacet
  facet normal 1 0 0
    outer loop
      vertex 297.7 16.653 5
      vertex 297.7 4.3412 29.6202
      vertex 297.7 0 5
    endloop
  endfacet
  facet normal 1.16768e-06 0.173646 0.984808
    outer loop
      vertex 297.7 20.4921 26.7724
      vertex 293.7 16.5528 27.467
      vertex 297.7 4.3412 29.6202
    endloop
  endfacet
  facet normal 0 0.173647 0.984808
    outer loop
      vertex 297.7 20.4921 26.7724
      vertex -1 16.5528 27.467
      vertex 293.7 16.5528 27.467
    endloop
  endfacet
  facet normal -3.52013e-06 0.173644 0.984809
    outer loop
      vertex -1 16.5528 27.467
      vertex -5 20.4921 26.7724
      vertex -1 8.28044 28.9256
    endloop
  endfacet
  facet normal -0 0.173647 0.984808
    outer loop
      vertex -5 20.4921 26.7724
      vertex -1 16.5528 27.467
      vertex 297.7 20.4921 26.7724
    endloop
  endfacet
  facet normal -6.12479e-06 0.173644 0.984809
    outer loop
      vertex 293.7 8.28044 28.9256
      vertex 297.7 4.3412 29.6202
      vertex 293.7 16.5528 27.467
    endloop
  endfacet
  facet normal -0 0.17365 0.984808
    outer loop
      vertex -1 8.28044 28.9256
      vertex 297.7 4.3412 29.6202
      vertex 293.7 8.28044 28.9256
    endloop
  endfacet
  facet normal 0 0.17365 0.984808
    outer loop
      vertex -1 8.28044 28.9256
      vertex -5 4.3412 29.6202
      vertex 297.7 4.3412 29.6202
    endloop
  endfacet
  facet normal 3.77237e-06 0.173646 0.984808
    outer loop
      vertex -5 4.3412 29.6202
      vertex -1 8.28044 28.9256
      vertex -5 20.4921 26.7724
    endloop
  endfacet
  facet normal -1 0 0
    outer loop
      vertex -5 16.653 5
      vertex -5 4.3412 29.6202
      vertex -5 20.4921 26.7724
    endloop
  endfacet
  facet normal -1 0 -0
    outer loop
      vertex -5 4.3412 29.6202
      vertex -5 16.653 5
      vertex -5 0 5
    endloop
  endfacet
  facet normal 0 0.984807 -0.17365
    outer loop
      vertex 297.7 16.653 5
      vertex -5 20.4921 26.7724
      vertex 297.7 20.4921 26.7724
    endloop
  endfacet
  facet normal 0 0.984807 -0.17365
    outer loop
      vertex -5 20.4921 26.7724
      vertex 297.7 16.653 5
      vertex -5 16.653 5
    endloop
  endfacet
  facet normal 0 -0.984808 0.173648
    outer loop
      vertex -5 0 5
      vertex 297.7 4.3412 29.6202
      vertex -5 4.3412 29.6202
    endloop
  endfacet
  facet normal 0 -0.984808 0.173648
    outer loop
      vertex 297.7 4.3412 29.6202
      vertex -5 0 5
      vertex 297.7 0 5
    endloop
  endfacet
  facet normal -1 0 0
    outer loop
      vertex 293.7 13.9481 12.6948
      vertex 293.7 8.28044 28.9256
      vertex 293.7 16.5528 27.467
    endloop
  endfacet
  facet normal -1 0 -0
    outer loop
      vertex 293.7 8.28044 28.9256
      vertex 293.7 13.9481 12.6948
      vertex 293.7 5.67571 14.1535
    endloop
  endfacet
  facet normal -0 0.173654 0.984807
    outer loop
      vertex -1 13.9481 12.6948
      vertex 293.7 5.67571 14.1535
      vertex 293.7 13.9481 12.6948
    endloop
  endfacet
  facet normal 0 0.173654 0.984807
    outer loop
      vertex 293.7 5.67571 14.1535
      vertex -1 13.9481 12.6948
      vertex -1 5.67571 14.1535
    endloop
  endfacet
  facet normal 1 0 0
    outer loop
      vertex -1 8.28044 28.9256
      vertex -1 13.9481 12.6948
      vertex -1 16.5528 27.467
    endloop
  endfacet
  facet normal 1 0 0
    outer loop
      vertex -1 13.9481 12.6948
      vertex -1 8.28044 28.9256
      vertex -1 5.67571 14.1535
    endloop
  endfacet
  facet normal 0 -0.984808 0.173646
    outer loop
      vertex -1 13.9481 12.6948
      vertex 293.7 16.5528 27.467
      vertex -1 16.5528 27.467
    endloop
  endfacet
  facet normal 0 -0.984808 0.173646
    outer loop
      vertex 293.7 16.5528 27.467
      vertex -1 13.9481 12.6948
      vertex 293.7 13.9481 12.6948
    endloop
  endfacet
  facet normal 0 0.984808 -0.173649
    outer loop
      vertex 293.7 5.67571 14.1535
      vertex -1 8.28044 28.9256
      vertex 293.7 8.28044 28.9256
    endloop
  endfacet
  facet normal 0 0.984808 -0.173649
    outer loop
      vertex -1 8.28044 28.9256
      vertex 293.7 5.67571 14.1535
      vertex -1 5.67571 14.1535
    endloop
  endfacet
  facet normal 1 -0 0
    outer loop
      vertex 302.7 -31.6667 5
      vertex 302.7 63.3333 0
      vertex 302.7 63.3333 5
    endloop
  endfacet
  facet normal 1 0 0
    outer loop
      vertex 302.7 63.3333 0
      vertex 302.7 -31.6667 5
      vertex 302.7 -31.6667 0
    endloop
  endfacet
  facet normal 0 0 1
    outer loop
      vertex 302.7 63.3333 5
      vertex 297.7 16.653 5
      vertex 302.7 -31.6667 5
    endloop
  endfacet
  facet normal 0 0 1
    outer loop
      vertex 302.7 63.3333 5
      vertex -5 16.653 5
      vertex 297.7 16.653 5
    endloop
  endfacet
  facet normal 0 0 1
    outer loop
      vertex -10 -31.6667 5
      vertex -5 16.653 5
      vertex -10 63.3333 5
    endloop
  endfacet
  facet normal -0 0 1
    outer loop
      vertex -10 63.3333 5
      vertex -5 16.653 5
      vertex 302.7 63.3333 5
    endloop
  endfacet
  facet normal -0 0 1
    outer loop
      vertex 297.7 0 5
      vertex 302.7 -31.6667 5
      vertex 297.7 16.653 5
    endloop
  endfacet
  facet normal -0 0 1
    outer loop
      vertex -5 0 5
      vertex 302.7 -31.6667 5
      vertex 297.7 0 5
    endloop
  endfacet
  facet normal 0 0 1
    outer loop
      vertex -5 0 5
      vertex -10 -31.6667 5
      vertex 302.7 -31.6667 5
    endloop
  endfacet
  facet normal 0 0 1
    outer loop
      vertex -5 16.653 5
      vertex -10 -31.6667 5
      vertex -5 0 5
    endloop
  endfacet
  facet normal 0 0 -1
    outer loop
      vertex -10 -31.6667 0
      vertex 302.7 63.3333 0
      vertex 302.7 -31.6667 0
    endloop
  endfacet
  facet normal -0 0 -1
    outer loop
      vertex 302.7 63.3333 0
      vertex -10 -31.6667 0
      vertex -10 63.3333 0
    endloop
  endfacet
  facet normal -1 0 0
    outer loop
      vertex -10 -31.6667 0
      vertex -10 63.3333 5
      vertex -10 63.3333 0
    endloop
  endfacet
  facet normal -1 -0 0
    outer loop
      vertex -10 63.3333 5
      vertex -10 -31.6667 0
      vertex -10 -31.6667 5
    endloop
  endfacet
  facet normal 0 1 -0
    outer loop
      vertex 302.7 63.3333 0
      vertex -10 63.3333 5
      vertex 302.7 63.3333 5
    endloop
  endfacet
  facet normal 0 1 0
    outer loop
      vertex -10 63.3333 5
      vertex 302.7 63.3333 0
      vertex -10 63.3333 0
    endloop
  endfacet
  facet normal 0 -1 0
    outer loop
      vertex -10 -31.6667 0
      vertex 302.7 -31.6667 5
      vertex -10 -31.6667 5
    endloop
  endfacet
  facet normal 0 -1 -0
    outer loop
      vertex 302.7 -31.6667 5
      vertex -10 -31.6667 0
      vertex 302.7 -31.6667 0
    endloop
  endfacet
endsolid OpenSCAD_Model
