solid OpenSCAD_Model
  facet normal 1 0 0
    outer loop
      vertex 90 10.0089 13.3894
      vertex 90 1.73648 14.8481
      vertex 90 8.52958 5
    endloop
  endfacet
  facet normal 1 -0 0
    outer loop
      vertex 90 8.52958 5
      vertex 90 63.3333 0
      vertex 90 63.3333 5
    endloop
  endfacet
  facet normal 1 0 0
    outer loop
      vertex 90 0 5
      vertex 90 8.52958 5
      vertex 90 1.73648 14.8481
    endloop
  endfacet
  facet normal 1 0 0
    outer loop
      vertex 90 -31.6667 0
      vertex 90 8.52958 5
      vertex 90 0 5
    endloop
  endfacet
  facet normal 1 0 0
    outer loop
      vertex 90 -31.6667 0
      vertex 90 0 5
      vertex 90 -31.6667 5
    endloop
  endfacet
  facet normal 1 0 0
    outer loop
      vertex 90 8.52958 5
      vertex 90 -31.6667 0
      vertex 90 63.3333 0
    endloop
  endfacet
  facet normal -1 0 0
    outer loop
      vertex 0 63.3333 0
      vertex 0 8.52958 5
      vertex 0 63.3333 5
    endloop
  endfacet
  facet normal -1 0 0
    outer loop
      vertex 0 8.52958 5
      vertex 0 0 5
      vertex 0 1.73648 14.8481
    endloop
  endfacet
  facet normal -1 0 0
    outer loop
      vertex 0 -31.6667 0
      vertex 0 8.52958 5
      vertex 0 63.3333 0
    endloop
  endfacet
  facet normal -1 -0 0
    outer loop
      vertex 0 8.52958 5
      vertex 0 -31.6667 0
      vertex 0 0 5
    endloop
  endfacet
  facet normal -1 -0 0
    outer loop
      vertex 0 0 5
      vertex 0 -31.6667 0
      vertex 0 -31.6667 5
    endloop
  endfacet
  facet normal -1 -0 0
    outer loop
      vertex 0 10.0089 13.3894
      vertex 0 8.52958 5
      vertex 0 1.73648 14.8481
    endloop
  endfacet
  facet normal 0 0.984807 -0.173653
    outer loop
      vertex 90 8.52958 5
      vertex 0 10.0089 13.3894
      vertex 90 10.0089 13.3894
    endloop
  endfacet
  facet normal 0 0.984807 -0.173653
    outer loop
      vertex 0 10.0089 13.3894
      vertex 90 8.52958 5
      vertex 0 8.52958 5
    endloop
  endfacet
  facet normal 0 -0.984808 0.173648
    outer loop
      vertex 0 0 5
      vertex 90 1.73648 14.8481
      vertex 0 1.73648 14.8481
    endloop
  endfacet
  facet normal 0 -0.984808 0.173648
    outer loop
      vertex 90 1.73648 14.8481
      vertex 0 0 5
      vertex 90 0 5
    endloop
  endfacet
  facet normal -0 0.173654 0.984807
    outer loop
      vertex 0 10.0089 13.3894
      vertex 90 1.73648 14.8481
      vertex 90 10.0089 13.3894
    endloop
  endfacet
  facet normal 0 0.173654 0.984807
    outer loop
      vertex 90 1.73648 14.8481
      vertex 0 10.0089 13.3894
      vertex 0 1.73648 14.8481
    endloop
  endfacet
  facet normal -0 0 1
    outer loop
      vertex 0 63.3333 5
      vertex 90 8.52958 5
      vertex 90 63.3333 5
    endloop
  endfacet
  facet normal 0 0 1
    outer loop
      vertex 90 8.52958 5
      vertex 0 63.3333 5
      vertex 0 8.52958 5
    endloop
  endfacet
  facet normal -0 0 1
    outer loop
      vertex 0 0 5
      vertex 90 -31.6667 5
      vertex 90 0 5
    endloop
  endfacet
  facet normal 0 0 1
    outer loop
      vertex 90 -31.6667 5
      vertex 0 0 5
      vertex 0 -31.6667 5
    endloop
  endfacet
  facet normal 0 0 -1
    outer loop
      vertex 0 -31.6667 0
      vertex 90 63.3333 0
      vertex 90 -31.6667 0
    endloop
  endfacet
  facet normal -0 0 -1
    outer loop
      vertex 90 63.3333 0
      vertex 0 -31.6667 0
      vertex 0 63.3333 0
    endloop
  endfacet
  facet normal 0 1 -0
    outer loop
      vertex 90 63.3333 0
      vertex 0 63.3333 5
      vertex 90 63.3333 5
    endloop
  endfacet
  facet normal 0 1 0
    outer loop
      vertex 0 63.3333 5
      vertex 90 63.3333 0
      vertex 0 63.3333 0
    endloop
  endfacet
  facet normal 0 -1 0
    outer loop
      vertex 0 -31.6667 0
      vertex 90 -31.6667 5
      vertex 0 -31.6667 5
    endloop
  endfacet
  facet normal 0 -1 -0
    outer loop
      vertex 90 -31.6667 5
      vertex 0 -31.6667 0
      vertex 90 -31.6667 0
    endloop
  endfacet
endsolid OpenSCAD_Model
